<mxfile host="65bd71144e">
    <diagram id="tYJdsMAIOQ761ntMj-JU" name="Page-1">
        <mxGraphModel dx="576" dy="238" grid="1" gridSize="10" guides="1" tooltips="1" connect="1" arrows="1" fold="1" page="1" pageScale="1" pageWidth="1200" pageHeight="1600" math="0" shadow="0">
            <root>
                <mxCell id="0"/>
                <mxCell id="1" parent="0"/>
                <mxCell id="3" style="edgeStyle=none;html=1;entryX=0.5;entryY=0;entryDx=0;entryDy=0;" parent="1" source="2" target="20" edge="1">
                    <mxGeometry relative="1" as="geometry">
                        <mxPoint x="220" y="220" as="targetPoint"/>
                    </mxGeometry>
                </mxCell>
                <mxCell id="2" value="Start" style="strokeWidth=2;html=1;shape=mxgraph.flowchart.terminator;whiteSpace=wrap;" parent="1" vertex="1">
                    <mxGeometry x="231.25" y="70" width="100" height="60" as="geometry"/>
                </mxCell>
                <mxCell id="6" style="edgeStyle=none;html=1;exitX=0.5;exitY=1;exitDx=0;exitDy=0;entryX=0.5;entryY=0;entryDx=0;entryDy=0;" parent="1" source="20" target="21" edge="1">
                    <mxGeometry relative="1" as="geometry">
                        <mxPoint x="300" y="310" as="sourcePoint"/>
                        <mxPoint x="300" y="220" as="targetPoint"/>
                    </mxGeometry>
                </mxCell>
                <mxCell id="8" style="edgeStyle=none;html=1;exitX=0.5;exitY=1;exitDx=0;exitDy=0;entryX=0.5;entryY=0;entryDx=0;entryDy=0;" parent="1" source="21" target="52" edge="1">
                    <mxGeometry relative="1" as="geometry">
                        <mxPoint x="280" y="415" as="targetPoint"/>
                        <mxPoint x="300" y="480" as="sourcePoint"/>
                    </mxGeometry>
                </mxCell>
                <mxCell id="20" value="Get&amp;nbsp; year" style="shape=parallelogram;html=1;strokeWidth=2;perimeter=parallelogramPerimeter;whiteSpace=wrap;rounded=1;arcSize=12;size=0.23;" parent="1" vertex="1">
                    <mxGeometry x="221.25" y="160" width="120" height="60" as="geometry"/>
                </mxCell>
                <mxCell id="57" style="edgeStyle=none;html=1;exitX=0;exitY=0.5;exitDx=0;exitDy=0;" parent="1" source="21" target="58" edge="1">
                    <mxGeometry relative="1" as="geometry">
                        <mxPoint x="410" y="300" as="targetPoint"/>
                    </mxGeometry>
                </mxCell>
                <mxCell id="21" value="try" style="rhombus;whiteSpace=wrap;html=1;" parent="1" vertex="1">
                    <mxGeometry x="215" y="245" width="132.5" height="110" as="geometry"/>
                </mxCell>
                <mxCell id="22" value="Yes" style="text;html=1;align=center;verticalAlign=middle;resizable=0;points=[];autosize=1;strokeColor=none;fillColor=none;" parent="1" vertex="1">
                    <mxGeometry x="215" y="355" width="40" height="20" as="geometry"/>
                </mxCell>
                <mxCell id="26" value="Stop" style="strokeWidth=2;html=1;shape=mxgraph.flowchart.terminator;whiteSpace=wrap;" parent="1" vertex="1">
                    <mxGeometry x="440" y="980" width="100" height="60" as="geometry"/>
                </mxCell>
                <mxCell id="54" style="edgeStyle=none;rounded=0;html=1;entryX=0.5;entryY=0;entryDx=0;entryDy=0;" parent="1" source="52" target="55" edge="1">
                    <mxGeometry relative="1" as="geometry">
                        <mxPoint x="280" y="515" as="targetPoint"/>
                    </mxGeometry>
                </mxCell>
                <mxCell id="52" value="convert string to int" style="rounded=1;whiteSpace=wrap;html=1;" parent="1" vertex="1">
                    <mxGeometry x="231.25" y="380" width="100" height="60" as="geometry"/>
                </mxCell>
                <mxCell id="69" style="edgeStyle=none;html=1;elbow=vertical;entryX=0;entryY=0.5;entryDx=0;entryDy=0;" edge="1" parent="1" source="55" target="62">
                    <mxGeometry relative="1" as="geometry"/>
                </mxCell>
                <mxCell id="85" style="edgeStyle=none;rounded=0;html=1;entryX=0.5;entryY=0;entryDx=0;entryDy=0;elbow=vertical;" edge="1" parent="1" source="55" target="84">
                    <mxGeometry relative="1" as="geometry"/>
                </mxCell>
                <mxCell id="55" value="if year_int &amp;gt; 0:" style="rhombus;whiteSpace=wrap;html=1;" parent="1" vertex="1">
                    <mxGeometry x="213.75" y="470" width="135" height="140" as="geometry"/>
                </mxCell>
                <mxCell id="56" value="Exception" style="text;html=1;align=center;verticalAlign=middle;resizable=0;points=[];autosize=1;strokeColor=none;fillColor=none;" parent="1" vertex="1">
                    <mxGeometry x="320" y="330" width="70" height="20" as="geometry"/>
                </mxCell>
                <mxCell id="103" style="edgeStyle=none;rounded=0;html=1;elbow=vertical;entryX=0.5;entryY=0;entryDx=0;entryDy=0;entryPerimeter=0;" edge="1" parent="1" source="58" target="26">
                    <mxGeometry relative="1" as="geometry">
                        <mxPoint x="450" y="960" as="targetPoint"/>
                        <Array as="points">
                            <mxPoint x="960" y="300"/>
                            <mxPoint x="960" y="620"/>
                            <mxPoint x="650" y="620"/>
                            <mxPoint x="650" y="960"/>
                            <mxPoint x="490" y="960"/>
                        </Array>
                    </mxGeometry>
                </mxCell>
                <mxCell id="58" value="print(&quot;{0} is not a valid input&quot;.format(year_string))" style="shape=parallelogram;html=1;strokeWidth=2;perimeter=parallelogramPerimeter;whiteSpace=wrap;rounded=1;arcSize=12;size=0.23;" parent="1" vertex="1">
                    <mxGeometry x="410" y="270" width="225" height="60" as="geometry"/>
                </mxCell>
                <mxCell id="70" style="edgeStyle=none;html=1;entryX=0;entryY=0.5;entryDx=0;entryDy=0;elbow=vertical;" edge="1" parent="1" source="62" target="63">
                    <mxGeometry relative="1" as="geometry"/>
                </mxCell>
                <mxCell id="62" value="if year_int % 4 == 0:" style="rhombus;whiteSpace=wrap;html=1;" vertex="1" parent="1">
                    <mxGeometry x="370" y="470" width="135" height="140" as="geometry"/>
                </mxCell>
                <mxCell id="72" style="edgeStyle=none;html=1;elbow=vertical;entryX=0;entryY=0.5;entryDx=0;entryDy=0;" edge="1" parent="1" source="63" target="73">
                    <mxGeometry relative="1" as="geometry">
                        <mxPoint x="710" y="540" as="targetPoint"/>
                    </mxGeometry>
                </mxCell>
                <mxCell id="63" value="if year_int % 100 == 0:" style="rhombus;whiteSpace=wrap;html=1;" vertex="1" parent="1">
                    <mxGeometry x="533" y="470" width="135" height="140" as="geometry"/>
                </mxCell>
                <mxCell id="106" style="edgeStyle=none;rounded=0;html=1;elbow=vertical;entryX=0.5;entryY=0;entryDx=0;entryDy=0;entryPerimeter=0;" edge="1" parent="1" source="73" target="26">
                    <mxGeometry relative="1" as="geometry">
                        <mxPoint x="460" y="960" as="targetPoint"/>
                        <Array as="points">
                            <mxPoint x="960" y="540"/>
                            <mxPoint x="960" y="620"/>
                            <mxPoint x="650" y="620"/>
                            <mxPoint x="650" y="960"/>
                            <mxPoint x="490" y="960"/>
                        </Array>
                    </mxGeometry>
                </mxCell>
                <mxCell id="73" value="print(&quot;{0} is a leap year&quot;.format(year_string))" style="shape=parallelogram;html=1;strokeWidth=2;perimeter=parallelogramPerimeter;whiteSpace=wrap;rounded=1;arcSize=12;size=0.23;" vertex="1" parent="1">
                    <mxGeometry x="700" y="510" width="225" height="60" as="geometry"/>
                </mxCell>
                <mxCell id="80" value="yes" style="text;html=1;align=center;verticalAlign=middle;resizable=0;points=[];autosize=1;strokeColor=none;fillColor=none;" vertex="1" parent="1">
                    <mxGeometry x="645" y="490" width="30" height="20" as="geometry"/>
                </mxCell>
                <mxCell id="87" style="edgeStyle=none;rounded=0;html=1;elbow=vertical;entryX=0;entryY=0.5;entryDx=0;entryDy=0;" edge="1" parent="1" source="84" target="89">
                    <mxGeometry relative="1" as="geometry">
                        <mxPoint x="390" y="710" as="targetPoint"/>
                    </mxGeometry>
                </mxCell>
                <mxCell id="92" style="edgeStyle=none;rounded=0;html=1;entryX=0.5;entryY=0;entryDx=0;entryDy=0;elbow=vertical;" edge="1" parent="1" source="84" target="91">
                    <mxGeometry relative="1" as="geometry"/>
                </mxCell>
                <mxCell id="84" value="elif year_int % &lt;br&gt;400 != 0:" style="rhombus;whiteSpace=wrap;html=1;" vertex="1" parent="1">
                    <mxGeometry x="213.75" y="640" width="135" height="140" as="geometry"/>
                </mxCell>
                <mxCell id="86" value="yes" style="text;html=1;align=center;verticalAlign=middle;resizable=0;points=[];autosize=1;strokeColor=none;fillColor=none;" vertex="1" parent="1">
                    <mxGeometry x="340" y="670" width="30" height="20" as="geometry"/>
                </mxCell>
                <mxCell id="105" style="edgeStyle=none;rounded=0;html=1;elbow=vertical;entryX=0.5;entryY=0;entryDx=0;entryDy=0;entryPerimeter=0;" edge="1" parent="1" source="89" target="26">
                    <mxGeometry relative="1" as="geometry">
                        <mxPoint x="460" y="940" as="targetPoint"/>
                        <Array as="points">
                            <mxPoint x="650" y="710"/>
                            <mxPoint x="650" y="960"/>
                            <mxPoint x="490" y="960"/>
                        </Array>
                    </mxGeometry>
                </mxCell>
                <mxCell id="89" value="print(&quot;{0} is not a leap year&quot;.format(year_string))" style="shape=parallelogram;html=1;strokeWidth=2;perimeter=parallelogramPerimeter;whiteSpace=wrap;rounded=1;arcSize=12;size=0.23;" vertex="1" parent="1">
                    <mxGeometry x="370" y="680" width="225" height="60" as="geometry"/>
                </mxCell>
                <mxCell id="90" value="no" style="text;html=1;align=center;verticalAlign=middle;resizable=0;points=[];autosize=1;strokeColor=none;fillColor=none;" vertex="1" parent="1">
                    <mxGeometry x="225" y="780" width="30" height="20" as="geometry"/>
                </mxCell>
                <mxCell id="93" style="edgeStyle=none;rounded=0;html=1;elbow=vertical;entryX=0.5;entryY=0;entryDx=0;entryDy=0;" edge="1" parent="1" source="91" target="95">
                    <mxGeometry relative="1" as="geometry">
                        <mxPoint x="281.25" y="910" as="targetPoint"/>
                    </mxGeometry>
                </mxCell>
                <mxCell id="91" value="print(&quot;{0} is a leap year&quot;.format(year_string))" style="shape=parallelogram;html=1;strokeWidth=2;perimeter=parallelogramPerimeter;whiteSpace=wrap;rounded=1;arcSize=12;size=0.23;" vertex="1" parent="1">
                    <mxGeometry x="168.75" y="800" width="225" height="60" as="geometry"/>
                </mxCell>
                <mxCell id="94" value="no" style="text;html=1;align=center;verticalAlign=middle;resizable=0;points=[];autosize=1;strokeColor=none;fillColor=none;" vertex="1" parent="1">
                    <mxGeometry x="225" y="870" width="30" height="20" as="geometry"/>
                </mxCell>
                <mxCell id="96" style="edgeStyle=none;rounded=0;html=1;elbow=vertical;entryX=0.5;entryY=0;entryDx=0;entryDy=0;" edge="1" parent="1" source="95" target="97">
                    <mxGeometry relative="1" as="geometry">
                        <mxPoint x="281.25" y="980" as="targetPoint"/>
                    </mxGeometry>
                </mxCell>
                <mxCell id="95" value="print(&quot;{0} is not a leap year&quot;.format(year_string))" style="shape=parallelogram;html=1;strokeWidth=2;perimeter=parallelogramPerimeter;whiteSpace=wrap;rounded=1;arcSize=12;size=0.23;" vertex="1" parent="1">
                    <mxGeometry x="168.75" y="890" width="225" height="60" as="geometry"/>
                </mxCell>
                <mxCell id="97" value="print(&quot;{0} is not a valid year&quot;.format(year_string))" style="shape=parallelogram;html=1;strokeWidth=2;perimeter=parallelogramPerimeter;whiteSpace=wrap;rounded=1;arcSize=12;size=0.23;" vertex="1" parent="1">
                    <mxGeometry x="168.75" y="980" width="225" height="60" as="geometry"/>
                </mxCell>
                <mxCell id="98" value="no" style="text;html=1;align=center;verticalAlign=middle;resizable=0;points=[];autosize=1;strokeColor=none;fillColor=none;" vertex="1" parent="1">
                    <mxGeometry x="225" y="960" width="30" height="20" as="geometry"/>
                </mxCell>
                <mxCell id="102" style="edgeStyle=none;rounded=0;html=1;elbow=vertical;exitX=1;exitY=0.5;exitDx=0;exitDy=0;entryX=0.5;entryY=0;entryDx=0;entryDy=0;entryPerimeter=0;" edge="1" parent="1" source="97" target="26">
                    <mxGeometry relative="1" as="geometry">
                        <mxPoint x="367.875" y="1100" as="sourcePoint"/>
                        <mxPoint x="490" y="960" as="targetPoint"/>
                        <Array as="points">
                            <mxPoint x="420" y="1010"/>
                            <mxPoint x="420" y="960"/>
                            <mxPoint x="490" y="960"/>
                        </Array>
                    </mxGeometry>
                </mxCell>
                <mxCell id="108" value="yes" style="text;html=1;align=center;verticalAlign=middle;resizable=0;points=[];autosize=1;strokeColor=none;fillColor=none;" vertex="1" parent="1">
                    <mxGeometry x="341.25" y="490" width="30" height="20" as="geometry"/>
                </mxCell>
                <mxCell id="109" value="yes" style="text;html=1;align=center;verticalAlign=middle;resizable=0;points=[];autosize=1;strokeColor=none;fillColor=none;" vertex="1" parent="1">
                    <mxGeometry x="490" y="490" width="30" height="20" as="geometry"/>
                </mxCell>
            </root>
        </mxGraphModel>
    </diagram>
</mxfile>